<svg preserveAspectRatio="none" width="100%" height="100%" overflow="visible" style="display: block;" viewBox="0 0 146.102 144" fill="none" xmlns="http://www.w3.org/2000/svg">
<g id="Group 225">
<path id="Ellipse 400" d="M73.0508 2C112.319 2 144.103 33.3673 144.103 72C144.103 110.633 112.319 142 73.0508 142C33.7831 142 2.00001 110.633 2 72C2 33.3674 33.7831 2.00016 73.0508 2Z" stroke="var(--stroke-0, white)" stroke-width="4"/>
<g id="Group 154">
<path id="Vector 467" d="M46.7697 103.576L48.3585 104.822L88.2601 53.7544L86.6712 52.5083L85.0824 51.2622L45.1808 102.33L46.7697 103.576Z" fill="var(--stroke-0, white)"/>
<path id="Vector 468" d="M58.9285 105.065L60.5169 106.311L92.9383 64.8519L91.3499 63.6052L89.7616 62.3585L57.3402 103.818L58.9285 105.065Z" fill="var(--stroke-0, white)"/>
<path id="Vector 469" d="M101.36 103.572L99.782 104.832L59.6492 54.444L61.2268 53.1837L62.8044 51.9234L102.937 102.312L101.36 103.572Z" fill="var(--stroke-0, white)"/>
<path id="Vector 470" d="M88.7651 105.065L87.1768 106.311L54.7554 64.8519L56.3437 63.6052L57.9321 62.3585L90.3535 103.818L88.7651 105.065Z" fill="var(--stroke-0, white)"/>
<path id="Vector 473" d="M68.1987 10.2471L119.422 117.459" stroke="var(--stroke-0, white)" stroke-width="4"/>
<path id="Vector 473_2" d="M25.7109 117.459L81.1036 10.2471" stroke="var(--stroke-0, white)" stroke-width="4"/>
<path id="Vector 473_3" d="M22.3359 104.952H123.591" stroke="var(--stroke-0, white)" stroke-width="4"/>
</g>
</g>
</svg>
